<svg width="48" height="48" viewBox="0 0 48 48" fill="none" xmlns="http://www.w3.org/2000/svg">
<rect width="48" height="48" rx="24" fill="#0600A8"/>
<path d="M7.84615 11.6923H8.76923V12.6154H7.84615V11.6923ZM10.6154 11.6923H11.5385V12.6154H10.6154V11.6923ZM11.5385 11.6923H12.4615V12.6154H11.5385V11.6923ZM14.3077 11.6923H15.2308V12.6154H14.3077V11.6923ZM15.2308 11.6923H16.1538V12.6154H15.2308V11.6923ZM10.6154 15.3846H11.5385V16.3077H10.6154V15.3846ZM10.6154 16.3077H11.5385V17.2308H10.6154V16.3077ZM10.6154 17.2308H11.5385V18.1538H10.6154V17.2308ZM9.69231 18.1538H10.6154V19.0769H9.69231V18.1538ZM12.4615 19.0769H13.3846V20H12.4615V19.0769ZM16.1538 15.3846H17.0769V16.3077H16.1538V15.3846ZM16.1538 16.3077H17.0769V17.2308H16.1538V16.3077ZM16.1538 17.2308H17.0769V18.1538H16.1538V17.2308ZM16.1538 18.1538H17.0769V19.0769H16.1538V18.1538ZM13.3846 16.3077H14.3077V17.2308H13.3846V16.3077ZM13.3846 17.2308H14.3077V18.1538H13.3846V17.2308ZM6.92308 14.4615H7.84615V15.3846H6.92308V14.4615ZM7.84615 15.3846H8.76923V16.3077H7.84615V15.3846ZM7.84615 16.3077H8.76923V17.2308H7.84615V16.3077ZM6.92308 16.3077H7.84615V17.2308H6.92308V16.3077ZM13.3846 18.1538H14.3077V19.0769H13.3846V18.1538ZM8.76923 11.6923H9.69231V12.6154H8.76923V11.6923ZM6.92308 12.6154H7.84615V13.5385H6.92308V12.6154ZM6.92308 13.5385H7.84615V14.4615H6.92308V13.5385ZM8.76923 12.6154H9.69231V13.5385H8.76923V12.6154ZM9.69231 12.6154H10.6154V13.5385H9.69231V12.6154ZM9.69231 13.5385H10.6154V14.4615H9.69231V13.5385ZM13.3846 12.6154H14.3077V13.5385H13.3846V12.6154ZM12.4615 12.6154H13.3846V13.5385H12.4615V12.6154ZM12.4615 13.5385H13.3846V14.4615H12.4615V13.5385ZM13.3846 15.3846H14.3077V16.3077H13.3846V15.3846ZM10.6154 14.4615H11.5385V15.3846H10.6154V14.4615ZM13.3846 14.4615H14.3077V15.3846H13.3846V14.4615ZM16.1538 14.4615H17.0769V15.3846H16.1538V14.4615ZM8.76923 19.0769H9.69231V20H8.76923V19.0769ZM7.84615 19.0769H8.76923V20H7.84615V19.0769ZM7.84615 18.1538H8.76923V19.0769H7.84615V18.1538ZM16.1538 12.6154H17.0769V13.5385H16.1538V12.6154ZM16.1538 13.5385H17.0769V14.4615H16.1538V13.5385ZM16.1538 19.0769H17.0769V20H16.1538V19.0769ZM6.92308 18.1538H7.84615V19.0769H6.92308V18.1538ZM17.9973 19.0769H18.9204V20H17.9973V19.0769ZM18.9204 18.1538H19.8434V19.0769H18.9204V18.1538ZM18.9204 17.2308H19.8434V18.1538H18.9204V17.2308ZM18.9204 16.3077H19.8434V17.2308H18.9204V16.3077ZM18.9204 15.3846H19.8434V16.3077H18.9204V15.3846ZM19.8434 14.4615H20.7665V15.3846H19.8434V14.4615ZM20.7665 14.4615H21.6896V15.3846H20.7665V14.4615ZM22.6127 14.4615H23.5358V15.3846H22.6127V14.4615ZM21.6896 15.3846H22.6127V16.3077H21.6896V15.3846ZM21.6896 16.3077H22.6127V17.2308H21.6896V16.3077ZM21.6896 17.2308H22.6127V18.1538H21.6896V17.2308ZM21.6896 18.1538H22.6127V19.0769H21.6896V18.1538ZM19.8434 19.0769H20.7665V20H19.8434V19.0769ZM20.7665 18.1538H21.6896V19.0769H20.7665V18.1538ZM22.6127 19.0769H23.5358V20H22.6127V19.0769ZM26.3005 17.2308H27.2236V18.1538H26.3005V17.2308ZM26.3005 16.3077H27.2236V17.2308H26.3005V16.3077ZM26.3005 15.3846H27.2236V16.3077H26.3005V15.3846ZM25.3774 14.4615H26.3005V15.3846H25.3774V14.4615ZM24.4543 15.3846H25.3774V16.3077H24.4543V15.3846ZM27.2236 14.4615H28.1466V15.3846H27.2236V14.4615ZM28.1466 14.4615H29.0697V15.3846H28.1466V14.4615ZM29.0697 15.3846H29.9928V16.3077H29.0697V15.3846ZM26.3005 18.1538H27.2236V19.0769H26.3005V18.1538ZM25.3774 19.0769H26.3005V20H25.3774V19.0769ZM28.1466 18.1538H29.0697V19.0769H28.1466V18.1538ZM27.2236 19.0769H28.1466V20H27.2236V19.0769ZM30.9114 19.0769H31.8344V20H30.9114V19.0769ZM32.7575 19.0769H33.6806V20H32.7575V19.0769ZM31.8344 18.1538H32.7575V19.0769H31.8344V18.1538ZM31.8344 17.2308H32.7575V18.1538H31.8344V17.2308ZM31.8344 16.3077H32.7575V17.2308H31.8344V16.3077ZM31.8344 15.3846H32.7575V16.3077H31.8344V15.3846ZM31.8344 14.4615H32.7575V15.3846H31.8344V14.4615ZM31.8344 12.6154H32.7575V13.5385H31.8344V12.6154ZM31.8344 13.5385H32.7575V14.4615H31.8344V13.5385ZM32.7575 11.6923H33.6806V12.6154H32.7575V11.6923ZM32.7575 17.2308H33.6806V18.1538H32.7575V17.2308ZM33.6806 16.3077H34.6037V17.2308H33.6806V16.3077ZM34.6037 15.3846H35.5267V16.3077H34.6037V15.3846ZM35.5267 14.4615H36.4498V15.3846H35.5267V14.4615ZM34.6037 17.2308H35.5267V18.1538H34.6037V17.2308ZM34.6037 18.1538H35.5267V19.0769H34.6037V18.1538ZM35.5267 19.0769H36.4498V20H35.5267V19.0769ZM37.3684 15.3846H38.2915V16.3077H37.3684V15.3846ZM38.2915 14.4615H39.2145V15.3846H38.2915V14.4615ZM39.2145 15.3846H40.1376V16.3077H39.2145V15.3846ZM39.2145 16.3077H40.1376V17.2308H39.2145V16.3077ZM39.2145 17.2308H40.1376V18.1538H39.2145V17.2308ZM39.2145 18.1538H40.1376V19.0769H39.2145V18.1538ZM40.1376 19.0769H41.0607V20H40.1376V19.0769ZM41.0607 19.0769H41.9838V20H41.0607V19.0769ZM41.9838 15.3846H42.9069V16.3077H41.9838V15.3846ZM41.9838 16.3077H42.9069V17.2308H41.9838V16.3077ZM41.9838 17.2308H42.9069V18.1538H41.9838V17.2308ZM41.9838 18.1538H42.9069V19.0769H41.9838V18.1538ZM41.9838 19.0769H42.9069V20H41.9838V19.0769ZM41.9838 20H42.9069V20.9231H41.9838V20ZM41.9838 20.9231H42.9069V21.8462H41.9838V20.9231ZM40.1376 21.8462H41.0607V22.7692H40.1376V21.8462ZM41.0607 21.8462H41.9838V22.7692H41.0607V21.8462ZM39.2145 20.9231H40.1376V21.8462H39.2145V20.9231ZM41.9838 14.4615H42.9069V15.3846H41.9838V14.4615ZM15.2326 30.4615H16.1556V31.3846H15.2326V30.4615ZM15.2326 31.3846H16.1556V32.3077H15.2326V31.3846ZM15.2326 32.3077H16.1556V33.2308H15.2326V32.3077ZM15.2326 33.2308H16.1556V34.1538H15.2326V33.2308ZM15.2326 35.0769H16.1556V36H15.2326V35.0769ZM15.2326 36H16.1556V36.9231H15.2326V36ZM15.2326 36.9231H16.1556V37.8462H15.2326V36.9231ZM15.2326 37.8462H16.1556V38.7692H15.2326V37.8462ZM16.1556 27.6923H17.0787V28.6154H16.1556V27.6923ZM17.0787 27.6923H18.0018V28.6154H17.0787V27.6923ZM18.0018 27.6923H18.9249V28.6154H18.0018V27.6923ZM18.9249 28.6154H19.848V29.5385H18.9249V28.6154ZM19.848 29.5385H20.771V30.4615H19.848V29.5385ZM19.848 30.4615H20.771V31.3846H19.848V30.4615ZM19.848 31.3846H20.771V32.3077H19.848V31.3846ZM19.848 32.3077H20.771V33.2308H19.848V32.3077ZM19.848 33.2308H20.771V34.1538H19.848V33.2308ZM18.9249 34.1538H19.848V35.0769H18.9249V34.1538ZM18.0018 35.0769H18.9249V36H18.0018V35.0769ZM17.0787 35.0769H18.0018V36H17.0787V35.0769ZM16.1556 34.1538H17.0787V35.0769H16.1556V34.1538ZM11.5403 28.6154H12.4633V29.5385H11.5403V28.6154ZM11.5403 29.5385H12.4633V30.4615H11.5403V29.5385ZM12.4633 27.6923H13.3864V28.6154H12.4633V27.6923ZM13.3864 27.6923H14.3095V28.6154H13.3864V27.6923ZM14.3095 27.6923H15.2326V28.6154H14.3095V27.6923ZM12.4633 30.4615H13.3864V31.3846H12.4633V30.4615ZM12.4633 31.3846H13.3864V32.3077H12.4633V31.3846ZM11.5403 31.3846H12.4633V32.3077H11.5403V31.3846ZM15.2326 28.6154H16.1556V29.5385H15.2326V28.6154ZM15.2326 29.5385H16.1556V30.4615H15.2326V29.5385ZM14.3095 28.6154H15.2326V29.5385H14.3095V28.6154ZM15.2326 34.1538H16.1556V35.0769H15.2326V34.1538ZM14.3095 34.1538H15.2326V35.0769H14.3095V34.1538ZM13.3864 34.1538H14.3095V35.0769H13.3864V34.1538ZM12.4633 35.0769H13.3864V36H12.4633V35.0769ZM11.5403 35.0769H12.4633V36H11.5403V35.0769ZM21.6887 35.0769H22.6118V36H21.6887V35.0769ZM22.6118 34.1538H23.5349V35.0769H22.6118V34.1538ZM22.6118 33.2308H23.5349V34.1538H22.6118V33.2308ZM22.6118 32.3077H23.5349V33.2308H22.6118V32.3077ZM22.6118 31.3846H23.5349V32.3077H22.6118V31.3846ZM23.5349 30.4615H24.4579V31.3846H23.5349V30.4615ZM24.4579 30.4615H25.381V31.3846H24.4579V30.4615ZM26.3041 30.4615H27.2272V31.3846H26.3041V30.4615ZM25.381 31.3846H26.3041V32.3077H25.381V31.3846ZM25.381 32.3077H26.3041V33.2308H25.381V32.3077ZM25.381 33.2308H26.3041V34.1538H25.381V33.2308ZM25.381 34.1538H26.3041V35.0769H25.381V34.1538ZM23.5349 35.0769H24.4579V36H23.5349V35.0769ZM24.4579 34.1538H25.381V35.0769H24.4579V34.1538ZM26.3041 35.0769H27.2272V36H26.3041V35.0769ZM28.1457 35.0769H29.0688V36H28.1457V35.0769ZM29.0688 34.1538H29.9919V35.0769H29.0688V34.1538ZM29.0688 33.2308H29.9919V34.1538H29.0688V33.2308ZM29.0688 32.3077H29.9919V33.2308H29.0688V32.3077ZM29.0688 31.3846H29.9919V32.3077H29.0688V31.3846ZM29.9919 30.4615H30.915V31.3846H29.9919V30.4615ZM30.915 29.5385H31.838V30.4615H30.915V29.5385ZM29.9919 28.6154H30.915V29.5385H29.9919V28.6154ZM29.0688 27.6923H29.9919V28.6154H29.0688V27.6923ZM31.838 30.4615H32.7611V31.3846H31.838V30.4615ZM31.838 31.3846H32.7611V32.3077H31.838V31.3846ZM31.838 32.3077H32.7611V33.2308H31.838V32.3077ZM31.838 33.2308H32.7611V34.1538H31.838V33.2308ZM31.838 34.1538H32.7611V35.0769H31.838V34.1538ZM29.9919 35.0769H30.915V36H29.9919V35.0769ZM30.915 35.0769H31.838V36H30.915V35.0769Z" fill="white"/>
</svg>
